PathFileType	4	(X/Y/Z)	Patient4_TMGait_0pt3_02_left_25.trc.trc
DataRate	CameraRate	NumFrames	NumMarkers	Units	OrigDataRate	OrigDataStartFrame	OrigNumFrames
51.851851851852	51.851851851852	4	33	mm	51.851851851852	1	       141
Frame#	Time	Sacral			L.Shoulder			Chest			R.Shoulder			Neck			R.ASIS			L.ASIS			R.Thigh.Superior			R.Thigh.Lateral			R.Thigh.Inferior			R.Patella			L.Thigh.Superior			L.Thigh.Lateral			L.Thigh.Inferior			L.Patella			L.Shank.Superior			L.Shank.Lateral			L.Shank.Inferior			R.Shank.Superior			R.Shank.Lateral			R.Shank.Inferior			R.Heel			R.Midfoot.Superior			R.Midfoot.Lateral			R.Toe			L.Heel			L.Midfoot.Lateral			L.Midfoot.Superior			L.Toe			L.Elbow			L.Wrist			R.Elbow			R.Wrist			
		X1	Y1	Z1	X2	Y2	Z2	X3	Y3	Z3	X4	Y4	Z4	X5	Y5	Z5	X6	Y6	Z6	X7	Y7	Z7	X8	Y8	Z8	X9	Y9	Z9	X10	Y10	Z10	X11	Y11	Z11	X12	Y12	Z12	X13	Y13	Z13	X14	Y14	Z14	X15	Y15	Z15	X16	Y16	Z16	X17	Y17	Z17	X18	Y18	Z18	X19	Y19	Z19	X20	Y20	Z20	X21	Y21	Z21	X22	Y22	Z22	X23	Y23	Z23	X24	Y24	Z24	X25	Y25	Z25	X26	Y26	Z26	X27	Y27	Z27	X28	Y28	Z28	X29	Y29	Z29	X30	Y30	Z30	X31	Y31	Z31	X32	Y32	Z32	X33	Y33	Z33	

1	49.020000000000	778.261863915722	995.224559624132	536.320327197979	970.516304101968	1419.704115013974	354.366184758286	1058.107596613577	1353.458281508468	525.180548373052	963.402959828400	1429.148217996690	691.050300671714	941.856900156081	1487.042863938511	509.378717457143	1005.526041331356	932.850967750381	662.352748283944	998.910961138510	951.035333136631	387.870497814093	1056.577772212918	734.927972278041	620.470950785642	977.640273387336	617.825142683931	670.117217135456	1058.030175195396	572.297796699755	588.307693973437	1060.786587695648	476.673171145279	589.583835988938	1063.435982016724	747.918486880510	416.370102954195	1002.297491942352	628.426597838317	335.917692680737	1090.810814189988	550.959795893046	403.290736782417	1088.748872061147	461.758048305712	392.444295791478	1014.966424474316	406.202843934037	377.151032480861	873.270879619573	382.749769920175	318.053790884957	842.080230036565	253.134242121593	363.982985661567	1016.085927613800	390.754134356642	589.694925167580	931.074374711448	296.128324573747	648.520313245555	953.601749911730	199.992198744901	579.569836085700	794.790348393229	48.039153527926	550.891358050645	969.037363830413	97.164691025115	583.329352157128	879.446329053228	39.970721292504	623.262530083286	1087.253796920225	38.998512797214	609.969864265726	646.530413415655	227.675576191187	389.503746461062	693.330913131208	164.265141987539	314.242516970581	796.809912116067	146.953718300490	338.404041056335	847.553135446976	24.039580946412	319.547280199853	1031.568120061647	1066.633934632442	248.818696506294	1225.605730074160	888.144407558438	246.198139680560	933.783775757464	1077.054341273252	812.076337153990	1036.971749721367	834.723387998846	829.951091231921	
2	49.039285714286	776.303990989440	992.837297850424	539.440754451285	966.262226643482	1416.785250463057	355.351647967587	1056.106537815257	1351.238312898729	525.228212953094	963.640810842858	1427.206991330911	692.194934428639	939.702775308048	1484.768566173523	510.588628095140	1005.127275954855	930.572880382526	663.691557887650	995.988608976321	949.612961996243	389.354996041917	1056.933042669402	733.098924048165	620.954136419466	978.899426190071	615.361500698350	670.061251226952	1059.300914762726	570.539261296530	587.816461620250	1062.115468818209	474.272948481399	588.526808134577	1065.255098889639	750.456208348737	418.642738423702	1008.313839485247	629.658065715822	337.871954589937	1099.000213402201	554.851901114598	405.640259908685	1099.162031808488	464.998482022508	394.517068372528	1025.122397749813	408.529128306120	378.848622095130	882.491044276123	386.083035356063	320.961132437539	851.586681089232	255.857596781880	365.750092818793	1015.946986821597	388.527827867557	588.853797235233	929.684327715799	295.221100882855	648.063740244642	950.121596822999	198.907863090217	578.977790602858	789.028122853534	48.430629741803	550.823753947375	963.218152976404	97.000315636564	583.012520968625	873.606587354835	40.227577097141	623.211936099365	1081.383243774856	38.908629903925	610.046483439763	655.585457953707	227.695497657368	392.804293526800	702.946396890162	167.583014912287	315.485083571060	806.909383708375	151.233222547111	338.812609103874	858.877888109189	28.281795967190	315.465031863260	1016.056300855635	1061.063067594194	252.993378706551	1189.704631500466	868.088942828503	251.263007826861	947.723479214510	1075.313442515400	814.592866918506	1068.792198733433	844.144415162590	829.338127563274	
3	49.058571428571	774.390388604651	990.567724435588	542.642460760924	961.875824144279	1413.991547902139	356.322778887775	1054.078784089213	1349.147509711227	525.189857493923	963.952410484740	1425.400479272340	693.302733129434	937.532890185752	1482.618400365307	511.790730325436	1004.740559986623	928.386414340282	664.937090973894	992.990304508430	948.321708859116	390.762612242978	1057.089923774918	731.286817348793	621.318786134886	979.904011396416	612.986637696100	669.998259226914	1060.198288177377	568.798861428725	587.247921643999	1063.024311777451	471.933481925310	587.417205499811	1066.883822605737	753.087582377475	420.793386814267	1014.045770699046	631.019901048978	339.718943071582	1106.870762967219	558.852841038953	407.831011056456	1109.304001263437	468.446676350986	396.413297729488	1035.265975431817	410.936660306052	380.353859364626	891.786519727724	388.787671533228	323.754142639811	861.872136452155	257.820299318020	367.347466104115	1015.429399295081	386.361977871447	587.988581921181	928.002820168684	294.327246693535	647.615444556879	946.396587929733	197.845697509781	578.398777849758	783.100993810140	48.794719148452	550.779488263488	957.233347597955	96.847176949608	582.728548686724	867.610270148131	40.461373329046	623.178299326582	1075.356549771314	38.822649358530	610.120296395990	665.707653468783	225.876048140118	396.029663361825	713.752305977295	169.467197982270	316.589735644499	818.232729381920	154.667405288947	339.020480143784	872.083127484244	32.280641624045	311.019460597104	999.826750504186	1055.734871969127	257.163419389880	1152.614905038204	848.713442212874	256.482167482984	962.062693848077	1073.907895785715	817.038602846798	1101.249435201924	854.817572817464	828.348883398028	
4	49.077857142857	772.590659046016	988.576886381017	545.854020895100	957.430479693230	1411.500776997552	357.240266035310	1052.077974261044	1347.333160726618	525.013148257176	964.380241345783	1423.872774287502	694.308370561501	935.410875990049	1480.742416736592	512.934320865250	1004.376262723163	926.422433332995	665.999093430972	989.961173304305	947.288867441629	392.008154620300	1056.932120584391	729.572773625905	621.503834028904	980.475255912129	610.837184282118	669.932659207380	1060.491839198733	567.156196844682	586.597195265753	1063.253546077118	469.776346850093	586.280811830130	1068.141360087560	755.773451016945	422.693073325968	1019.138141930086	632.536352350227	341.340804751475	1113.964069104188	562.883137136229	409.714082121338	1118.670792667575	472.102719337480	397.989068816649	1045.035776888609	413.407242117617	381.533063024565	900.942175811532	390.475896957115	326.250720373390	873.036865245610	258.647860358660	368.639412613300	1014.347424817027	384.375279805549	587.129936602553	925.920968429580	293.497342630671	647.202858636322	942.409587177757	196.866040279819	577.866015768109	777.103501213241	49.120866006865	550.774954531776	951.188330251976	96.722534267781	582.514444433704	861.559175881633	40.661587067633	623.175664037085	1069.274783220184	38.743226878331	610.187692927498	677.211106694765	221.471651536969	398.994737801572	726.111677096149	169.223540194740	317.438067072702	831.097251518621	156.797829470411	338.935019282322	887.722859330940	35.857765281826	306.258616230722	983.020181572837	1051.007801012401	261.181721091117	1114.957452508455	831.036890565110	261.747780810922	976.575371225671	1073.096569725884	819.285484216967	1133.585487359793	867.106432545191	826.795260233788	
